<svg xmlns="http://www.w3.org/2000/svg" viewBox="0 0 64 64" width="64" height="64">
  <rect width="64" height="64" rx="6" fill="#0c0d10"/>
  <g transform="translate(14.773 41.221) scale(0.2735)" fill="#d8dde3">
    <path d="M56.934-69.287L56.934-65.479Q54.980-65.234 53.613-64.990Q52.246-64.746 50.537-64.307Q48.535-63.770 47.974-62.402Q47.412-61.035 47.412-59.277L47.412-21.094Q47.412-15.820 45.288-11.426Q43.164-7.031 39.453-4.053Q35.693-1.123 31.055 0.366Q26.416 1.855 21.143 1.855Q12.012 1.855 6.421-2.539Q0.830-6.934 0.830-14.600Q0.830-19.141 3.394-22.119Q5.957-25.098 10.449-25.098Q14.697-25.098 17.212-22.607Q19.727-20.117 19.727-16.455Q19.727-13.330 17.554-10.669Q15.381-8.008 12.598-5.762L12.598-5.127Q13.037-4.150 14.502-3.467Q15.967-2.783 17.480-2.783Q23.340-2.783 26.685-6.982Q30.029-11.182 30.029-19.678L30.029-58.789Q30.029-60.547 29.492-61.719Q28.955-62.891 26.904-63.770Q25.439-64.404 23.364-64.844Q21.289-65.283 19.922-65.479L19.922-69.287L56.934-69.287M125.146-69.287L125.146-50.781L121.387-50.781Q119.971-54.834 116.382-59.399Q112.793-63.965 109.570-64.404Q108.105-64.600 105.664-64.746Q103.223-64.893 101.172-64.893L90.381-64.893L90.381-37.695L97.266-37.695Q100.195-37.695 102.344-38.354Q104.492-39.014 106.152-40.723Q107.373-41.943 108.521-44.800Q109.668-47.656 109.912-49.707L113.623-49.707L113.623-20.557L109.912-20.557Q109.717-22.754 108.398-25.903Q107.080-29.053 106.152-30.078Q104.736-31.641 102.539-32.397Q100.342-33.154 97.266-33.154L90.381-33.154L90.381-10.205Q90.381-8.447 91.040-7.202Q91.699-5.957 93.555-5.176Q94.629-4.736 96.509-4.370Q98.389-4.004 100.244-3.809L100.244 0L62.891 0L62.891-3.809Q64.307-3.955 66.650-4.224Q68.994-4.492 69.922-4.883Q71.680-5.566 72.363-6.787Q73.047-8.008 73.047-9.912L73.047-58.789Q73.047-60.449 72.437-61.694Q71.826-62.939 69.922-63.770Q68.555-64.355 66.309-64.844Q64.063-65.332 62.891-65.479L62.891-69.287"/>
  </g>
</svg>
